<svg viewBox="0.0 0.0 1808.9 477.5" xmlns="http://www.w3.org/2000/svg" role="img" aria-label="くるリズム 暮らしに合わせる自動スケジューラ">
<defs><linearGradient id="gMain" x1="39.0" y1="0" x2="1769.9" y2="0" gradientUnits="userSpaceOnUse"><stop offset="0" stop-color="#22C1B4"/><stop offset="0.55" stop-color="#2FBDB7"/><stop offset="1" stop-color="#6ED9C7"/></linearGradient><linearGradient id="gWave" x1="1417.1" y1="0" x2="1769.9" y2="0" gradientUnits="userSpaceOnUse"><stop offset="0" stop-color="#6ED9C7"/><stop offset="1" stop-color="#5B8FF9"/></linearGradient><pattern id="stripe" width="216.0" height="39.0" patternUnits="userSpaceOnUse"><path d="M0 19.5 C 54.0 12.5 54.0 12.5 108.0 19.5 S 216.0 26.5 216.0 19.5" fill="none" stroke="#0b5f59" stroke-opacity="0.06" stroke-width="24.2" stroke-linecap="round"/></pattern><clipPath id="wordClip"><path d="M678 -62Q658 -76 633.0 -71.5Q608 -67 594 -48Q560 1 517.5 54.0Q475 107 433.0 155.5Q391 204 357 238Q298 296 278.0 347.0Q258 398 279.0 448.5Q300 499 362 557Q383 576 412.5 605.0Q442 634 475.0 667.0Q508 700 539.0 733.0Q570 766 595 792Q612 810 637.5 810.5Q663 811 681 794Q699 778 699.5 752.5Q700 727 683 709Q648 671 605.5 628.5Q563 586 523.0 547.5Q483 509 454 483Q415 447 402.5 421.5Q390 396 402.5 371.0Q415 346 450 309Q484 274 527.5 225.0Q571 176 615.0 123.0Q659 70 692 22Q707 3 702.5 -22.5Q698 -48 678 -62Z" transform="translate(-41.47 290.61) scale(0.30000 -0.30000)"/>
<path d="M497 -43Q406 -41 353.5 1.0Q301 43 303 116Q305 159 327.5 191.0Q350 223 389.0 239.5Q428 256 478 251Q558 244 590.0 196.5Q622 149 609 88Q644 105 666.5 137.5Q689 170 689 222Q689 261 666.5 292.5Q644 324 603.5 341.5Q563 359 510.0 356.0Q457 353 396.0 324.5Q335 296 271 234Q253 217 226.0 217.5Q199 218 182 238Q166 257 167.5 281.5Q169 306 188 320Q250 367 312.0 419.5Q374 472 430.5 523.0Q487 574 530 616Q557 642 548.5 659.0Q540 676 505 671Q471 667 427.5 661.0Q384 655 346 650Q322 646 302.0 661.0Q282 676 279 701Q275 725 290.0 744.5Q305 764 330 768Q352 771 385.5 774.0Q419 777 454.5 780.0Q490 783 515 785Q580 790 621.0 768.0Q662 746 677.0 708.5Q692 671 678.5 627.0Q665 583 621 544Q601 527 570.5 500.0Q540 473 508 445Q565 456 619.0 446.5Q673 437 715.5 408.0Q758 379 783.0 331.5Q808 284 808 220Q808 129 768.0 69.5Q728 10 658.0 -17.5Q588 -45 497 -43ZM479 68Q481 68 485 68Q488 68 492.5 67.5Q497 67 503 68Q517 101 508.0 123.0Q499 145 472 149Q448 152 432.5 142.5Q417 133 415 112Q414 72 479 68Z" transform="translate(255.53 290.61) scale(0.30000 -0.30000)"/>
<path d="M430 -43Q408 -56 382.5 -48.0Q357 -40 345 -18Q333 5 339.5 29.0Q346 53 368 66Q430 100 472.0 141.5Q514 183 539.5 238.0Q565 293 576.5 368.0Q588 443 588 545Q588 587 585.5 635.0Q583 683 578 714Q575 740 591.5 760.0Q608 780 633 783Q659 786 678.5 770.0Q698 754 701 728Q705 704 706.5 670.5Q708 637 708.5 604.0Q709 571 709 545Q709 401 685.0 291.5Q661 182 600.5 100.5Q540 19 430 -43ZM330 288Q305 290 289.5 309.0Q274 328 275 355Q277 381 276.0 424.5Q275 468 273.0 516.5Q271 565 267.5 609.5Q264 654 260 682Q256 709 272.0 729.0Q288 749 313 752Q339 755 359.0 740.5Q379 726 382 700Q385 672 388.5 624.5Q392 577 394.5 524.0Q397 471 398.5 422.5Q400 374 398 344Q397 317 376.5 302.0Q356 287 330 288Z" transform="translate(552.53 290.61) scale(0.30000 -0.30000)"/>
<path d="M185 19Q163 8 138.5 16.5Q114 25 103 48Q92 71 100.5 95.5Q109 120 131 130Q274 199 385.5 297.0Q497 395 567 508Q612 581 519 581H246Q221 581 203.0 599.0Q185 617 185 642Q185 668 203.0 686.0Q221 704 246 704H523Q613 704 661.0 671.5Q709 639 713.5 583.0Q718 527 676 454Q665 434 651.5 414.0Q638 394 623 374Q669 336 717.5 291.0Q766 246 808.5 203.5Q851 161 880 131Q897 112 897.0 86.0Q897 60 878 42Q860 25 834.0 25.0Q808 25 790 44Q763 72 722.0 114.5Q681 157 635.0 202.0Q589 247 546 284Q470 205 376.5 135.5Q283 66 185 19Z" transform="translate(849.53 290.61) scale(0.30000 -0.30000)"/>
<path d="M863 33Q841 21 816.5 29.0Q792 37 779 59Q769 77 752.0 101.0Q735 125 715 153Q657 143 583.0 132.5Q509 122 429.5 112.5Q350 103 276.0 95.5Q202 88 145 84Q120 82 100.5 99.0Q81 116 79 141Q78 167 95.5 186.0Q113 205 138 206Q154 208 171.0 209.0Q188 210 207 211Q237 255 270.5 313.5Q304 372 336.0 435.0Q368 498 394.5 556.0Q421 614 438 656Q447 680 470.0 691.0Q493 702 517 693Q541 684 552.5 660.5Q564 637 554 614Q532 562 499.0 494.5Q466 427 427.0 356.5Q388 286 348 223Q422 230 497.5 237.5Q573 245 637 253Q616 279 596.0 302.0Q576 325 559 341Q542 360 542.5 385.0Q543 410 562 427Q581 444 606.0 443.0Q631 442 648 424Q674 398 708.0 357.5Q742 317 777.5 272.0Q813 227 843.0 186.0Q873 145 889 117Q902 95 894.0 70.0Q886 45 863 33Z" transform="translate(1146.53 290.61) scale(0.30000 -0.30000)"/></clipPath></defs>
<g id="logo-main" fill="url(#gMain)">
<path d="M678 -62Q658 -76 633.0 -71.5Q608 -67 594 -48Q560 1 517.5 54.0Q475 107 433.0 155.5Q391 204 357 238Q298 296 278.0 347.0Q258 398 279.0 448.5Q300 499 362 557Q383 576 412.5 605.0Q442 634 475.0 667.0Q508 700 539.0 733.0Q570 766 595 792Q612 810 637.5 810.5Q663 811 681 794Q699 778 699.5 752.5Q700 727 683 709Q648 671 605.5 628.5Q563 586 523.0 547.5Q483 509 454 483Q415 447 402.5 421.5Q390 396 402.5 371.0Q415 346 450 309Q484 274 527.5 225.0Q571 176 615.0 123.0Q659 70 692 22Q707 3 702.5 -22.5Q698 -48 678 -62Z" transform="translate(-41.47 290.61) scale(0.30000 -0.30000)"/>
<path d="M497 -43Q406 -41 353.5 1.0Q301 43 303 116Q305 159 327.5 191.0Q350 223 389.0 239.5Q428 256 478 251Q558 244 590.0 196.5Q622 149 609 88Q644 105 666.5 137.5Q689 170 689 222Q689 261 666.5 292.5Q644 324 603.5 341.5Q563 359 510.0 356.0Q457 353 396.0 324.5Q335 296 271 234Q253 217 226.0 217.5Q199 218 182 238Q166 257 167.5 281.5Q169 306 188 320Q250 367 312.0 419.5Q374 472 430.5 523.0Q487 574 530 616Q557 642 548.5 659.0Q540 676 505 671Q471 667 427.5 661.0Q384 655 346 650Q322 646 302.0 661.0Q282 676 279 701Q275 725 290.0 744.5Q305 764 330 768Q352 771 385.5 774.0Q419 777 454.5 780.0Q490 783 515 785Q580 790 621.0 768.0Q662 746 677.0 708.5Q692 671 678.5 627.0Q665 583 621 544Q601 527 570.5 500.0Q540 473 508 445Q565 456 619.0 446.5Q673 437 715.5 408.0Q758 379 783.0 331.5Q808 284 808 220Q808 129 768.0 69.5Q728 10 658.0 -17.5Q588 -45 497 -43ZM479 68Q481 68 485 68Q488 68 492.5 67.5Q497 67 503 68Q517 101 508.0 123.0Q499 145 472 149Q448 152 432.5 142.5Q417 133 415 112Q414 72 479 68Z" transform="translate(255.53 290.61) scale(0.30000 -0.30000)"/>
<path d="M430 -43Q408 -56 382.5 -48.0Q357 -40 345 -18Q333 5 339.5 29.0Q346 53 368 66Q430 100 472.0 141.5Q514 183 539.5 238.0Q565 293 576.5 368.0Q588 443 588 545Q588 587 585.5 635.0Q583 683 578 714Q575 740 591.5 760.0Q608 780 633 783Q659 786 678.5 770.0Q698 754 701 728Q705 704 706.5 670.5Q708 637 708.5 604.0Q709 571 709 545Q709 401 685.0 291.5Q661 182 600.5 100.5Q540 19 430 -43ZM330 288Q305 290 289.5 309.0Q274 328 275 355Q277 381 276.0 424.5Q275 468 273.0 516.5Q271 565 267.5 609.5Q264 654 260 682Q256 709 272.0 729.0Q288 749 313 752Q339 755 359.0 740.5Q379 726 382 700Q385 672 388.5 624.5Q392 577 394.5 524.0Q397 471 398.5 422.5Q400 374 398 344Q397 317 376.5 302.0Q356 287 330 288Z" transform="translate(552.53 290.61) scale(0.30000 -0.30000)"/>
<path d="M185 19Q163 8 138.5 16.5Q114 25 103 48Q92 71 100.5 95.5Q109 120 131 130Q274 199 385.5 297.0Q497 395 567 508Q612 581 519 581H246Q221 581 203.0 599.0Q185 617 185 642Q185 668 203.0 686.0Q221 704 246 704H523Q613 704 661.0 671.5Q709 639 713.5 583.0Q718 527 676 454Q665 434 651.5 414.0Q638 394 623 374Q669 336 717.5 291.0Q766 246 808.5 203.5Q851 161 880 131Q897 112 897.0 86.0Q897 60 878 42Q860 25 834.0 25.0Q808 25 790 44Q763 72 722.0 114.5Q681 157 635.0 202.0Q589 247 546 284Q470 205 376.5 135.5Q283 66 185 19Z" transform="translate(849.53 290.61) scale(0.30000 -0.30000)"/>
<path d="M863 33Q841 21 816.5 29.0Q792 37 779 59Q769 77 752.0 101.0Q735 125 715 153Q657 143 583.0 132.5Q509 122 429.5 112.5Q350 103 276.0 95.5Q202 88 145 84Q120 82 100.5 99.0Q81 116 79 141Q78 167 95.5 186.0Q113 205 138 206Q154 208 171.0 209.0Q188 210 207 211Q237 255 270.5 313.5Q304 372 336.0 435.0Q368 498 394.5 556.0Q421 614 438 656Q447 680 470.0 691.0Q493 702 517 693Q541 684 552.5 660.5Q564 637 554 614Q532 562 499.0 494.5Q466 427 427.0 356.5Q388 286 348 223Q422 230 497.5 237.5Q573 245 637 253Q616 279 596.0 302.0Q576 325 559 341Q542 360 542.5 385.0Q543 410 562 427Q581 444 606.0 443.0Q631 442 648 424Q674 398 708.0 357.5Q742 317 777.5 272.0Q813 227 843.0 186.0Q873 145 889 117Q902 95 894.0 70.0Q886 45 863 33Z" transform="translate(1146.53 290.61) scale(0.30000 -0.30000)"/>
</g>
<path id="wave-line" d="M 1408.1 262.1 L 1438.1 262.1 C 1484.0 232.1 1494.2 232.1 1540.1 262.1 S 1596.2 287.6 1642.1 262.1 S 1691.1 244.1 1733.9 262.1" fill="none" stroke="url(#gWave)" stroke-width="21.6" stroke-linecap="round" stroke-linejoin="round"/>
<circle id="end-dot" cx="1754.9" cy="262.1" r="15.0" fill="#5B8FF9"/>
<g id="dakuten" fill="#5B8FF9">
<path d="M848 615Q835 603 816.5 604.0Q798 605 786 619Q774 633 755.5 653.0Q737 673 722 688Q712 699 712.0 714.5Q712 730 724 743Q735 754 751.0 754.5Q767 755 780 745Q796 733 817.0 713.5Q838 694 852 677Q863 663 862.0 645.5Q861 628 848 615Z M877 705Q864 719 844.5 737.5Q825 756 808 771Q798 780 796.5 796.0Q795 812 806 825Q817 837 832.5 838.5Q848 840 861 831Q878 821 900.0 802.5Q922 784 938 768Q951 755 951.0 737.5Q951 720 938 706Q927 693 908.5 692.5Q890 692 877 705Z" transform="translate(849.53 290.61) scale(0.30000 -0.30000)"/>
</g>
<g clip-path="url(#wordClip)"><rect x="0.0" y="0.0" width="1808.9" height="477.5" fill="url(#stripe)"/></g>
<g id="logo-subtitle" fill="#22B3A6" transform="translate(39.00 431.51) scale(0.8270)">
<path d="M94 85Q75 78 58.5 82.0Q42 86 34 102Q26 119 33.0 134.5Q40 150 59 157Q121 177 175.5 210.0Q230 243 275 282H75Q60 282 50.0 292.0Q40 302 40 316Q40 330 50.0 340.0Q60 350 75 350H342Q358 369 374 391H370Q308 391 272.0 404.0Q236 417 221.5 446.0Q207 475 207 524Q207 589 233.5 619.0Q260 649 328 655Q327 658 327 664V709H90Q76 709 65.5 719.5Q55 730 55 744Q55 758 65.5 768.5Q76 779 90 779H327V818Q327 838 339.5 849.0Q352 860 370 860Q388 860 400.5 849.0Q413 838 413 818V779H588V818Q588 838 601.0 849.0Q614 860 632 860Q649 860 662.0 849.0Q675 838 675 818V779H906Q921 779 931.0 768.5Q941 758 941 744Q941 730 931.0 719.5Q921 709 906 709H675V664Q675 662 674.5 659.5Q674 657 674 655Q745 651 772.0 620.0Q799 589 799 524Q799 475 784.5 446.0Q770 417 734.5 404.0Q699 391 637 391H462Q456 381 449.5 371.0Q443 361 436 350H928Q942 350 952.5 340.0Q963 330 963 316Q963 302 952.5 292.0Q942 282 928 282H729Q776 247 833.5 214.0Q891 181 947 161Q965 155 971.5 140.0Q978 125 971 108Q964 91 945.5 85.0Q927 79 909 86Q857 108 802.5 140.0Q748 172 700.5 209.0Q653 246 620 282H382Q324 218 250.0 167.5Q176 117 94 85ZM462 -85Q395 -85 358.0 -72.0Q321 -59 306.0 -28.0Q291 3 291 57V89Q291 143 306.0 173.5Q321 204 358.0 217.0Q395 230 462 230H546Q614 230 650.5 217.0Q687 204 701.5 173.5Q716 143 716 89V57Q716 3 701.5 -28.0Q687 -59 650.5 -72.0Q614 -85 546 -85ZM299 552H707Q703 580 684.5 587.5Q666 595 621 595H386Q340 595 322.0 587.5Q304 580 299 552ZM386 453H621Q666 453 684.5 460.0Q703 467 707 494H300Q304 467 322.0 460.0Q340 453 386 453ZM462 -18H546Q599 -18 618.0 -6.5Q637 5 638 44H373Q375 5 392.5 -6.5Q410 -18 462 -18ZM373 104H638Q636 142 617.5 153.0Q599 164 546 164H462Q410 164 392.5 153.0Q375 142 373 104ZM413 657H589Q589 659 588.5 660.5Q588 662 588 664V709H413Z" transform="translate(-2.97 0.00) scale(0.10000 -0.10000)"/>
<path d="M416 -19Q397 -19 383.5 -6.0Q370 7 370 26Q369 45 382.0 58.0Q395 71 414 72Q557 74 632.0 115.0Q707 156 707 247Q707 306 667.5 336.0Q628 366 570 366Q506 366 436.0 335.5Q366 305 299 236Q289 226 274.5 223.0Q260 220 247 227Q234 233 227.5 246.0Q221 259 223 272Q232 329 245.5 403.0Q259 477 276 556Q281 574 297.0 584.0Q313 594 331 589Q349 585 359.0 568.5Q369 552 364 534Q357 507 345.5 460.5Q334 414 323 359Q387 408 450.5 430.5Q514 453 571 453Q638 453 689.0 426.5Q740 400 768.5 353.5Q797 307 797 247Q797 170 758.0 111.0Q719 52 635.0 18.0Q551 -16 416 -19ZM582 601Q548 618 506.0 636.5Q464 655 424.0 672.5Q384 690 357 701Q340 708 334.0 726.0Q328 744 336 761Q344 778 361.5 784.0Q379 790 396 782Q426 770 466.5 752.5Q507 735 547.0 717.0Q587 699 617 685Q634 677 641.0 660.0Q648 643 641 626Q634 609 616.5 601.5Q599 594 582 601Z" transform="translate(103.03 0.00) scale(0.10000 -0.10000)"/>
<path d="M528 -32Q417 -32 352.0 24.0Q287 80 287 204V740Q287 759 300.5 772.0Q314 785 332 785Q351 785 364.5 772.0Q378 759 378 740V204Q378 121 416.5 89.5Q455 58 528 58Q599 58 656.0 95.0Q713 132 747 205Q755 222 773.5 228.0Q792 234 809 226Q826 218 832.5 199.5Q839 181 831 164Q786 66 705.5 17.0Q625 -32 528 -32Z" transform="translate(209.03 0.00) scale(0.10000 -0.10000)"/>
<path d="M217 0Q199 -4 184.0 7.0Q169 18 165 36Q156 82 152.0 148.5Q148 215 148.0 292.0Q148 369 152.0 447.0Q156 525 164.0 594.0Q172 663 183 713Q187 732 203.0 742.0Q219 752 237 747Q256 743 265.5 727.0Q275 711 271 692Q258 641 250.0 576.0Q242 511 238.5 439.0Q235 367 235.5 296.5Q236 226 240.5 162.5Q245 99 254 52Q257 34 246.5 18.5Q236 3 217 0ZM630 58Q501 58 439.5 106.0Q378 154 370 236Q368 255 379.5 269.5Q391 284 410 285Q429 287 443.5 275.5Q458 264 460 245Q464 195 505.0 170.0Q546 145 631 145Q666 145 716.0 150.5Q766 156 817 169Q835 174 850.5 163.0Q866 152 870 134Q875 115 864.5 100.0Q854 85 835 80Q783 67 730.5 62.5Q678 58 630 58ZM440 547Q421 543 405.5 553.5Q390 564 386 583Q383 601 393.5 616.5Q404 632 422 636Q460 644 509.5 647.5Q559 651 611.5 651.5Q664 652 713.0 649.0Q762 646 801 639Q819 635 829.5 620.0Q840 605 837 586Q833 568 818.0 557.0Q803 546 784 550Q612 581 440 547Z" transform="translate(315.03 0.00) scale(0.10000 -0.10000)"/>
<path d="M422 -61Q347 -61 302.0 -44.0Q257 -27 236.5 14.0Q216 55 216 125Q216 195 236.5 235.5Q257 276 302.0 293.5Q347 311 422 311H578Q654 311 699.0 293.5Q744 276 764.0 235.5Q784 195 784 125Q784 55 764.0 14.0Q744 -27 699.0 -44.0Q654 -61 578 -61ZM94 402Q75 390 54.5 392.5Q34 395 23 413Q11 431 17.0 448.5Q23 466 41 476Q104 513 172.0 564.0Q240 615 302.5 671.5Q365 728 411 780Q496 876 588 781Q635 734 694.5 682.5Q754 631 822.0 582.0Q890 533 960 493Q977 483 983.0 463.0Q989 443 977 426Q965 407 944.0 403.5Q923 400 903 413Q835 456 766.5 507.5Q698 559 636.5 614.0Q575 669 527 721Q499 752 473 722Q424 667 359.5 608.0Q295 549 226.0 495.0Q157 441 94 402ZM423 24H577Q640 24 664.5 44.0Q689 64 689 125Q689 187 664.5 206.5Q640 226 577 226H423Q360 226 335.5 206.5Q311 187 311 125Q311 64 335.5 44.0Q360 24 423 24ZM278 412Q259 412 247.0 424.5Q235 437 235 455Q235 473 247.0 486.0Q259 499 278 499H720Q740 499 751.5 486.0Q763 473 763 455Q763 437 751.5 424.5Q740 412 720 412Z" transform="translate(421.03 0.00) scale(0.10000 -0.10000)"/>
<path d="M350 -66Q332 -66 319.0 -53.0Q306 -40 306 -22V269Q271 238 235.5 204.5Q200 171 164 137Q151 125 133.0 125.5Q115 126 102 139Q90 153 90.5 171.0Q91 189 104 201Q153 246 203.5 291.5Q254 337 306 378V535Q286 531 255.0 524.0Q224 517 194.5 511.0Q165 505 146 501Q127 497 111.5 507.0Q96 517 92 536Q88 554 98.0 570.0Q108 586 126 589Q149 594 182.5 600.0Q216 606 250.0 612.0Q284 618 306 622V779Q306 798 319.0 810.5Q332 823 350 823Q368 823 381.0 810.5Q394 798 394 779V620Q418 611 434 588Q450 566 445.0 532.0Q440 498 420 457Q476 492 533.0 512.0Q590 532 646 532Q768 532 833.5 471.5Q899 411 899 307Q899 267 885.5 223.0Q872 179 836.5 138.5Q801 98 736.5 67.0Q672 36 570 20Q551 17 536.0 28.0Q521 39 518 57Q515 76 526.0 91.0Q537 106 556 109Q685 129 747.0 178.5Q809 228 809 307Q809 376 766.0 411.0Q723 446 646 446Q582 446 519.0 417.0Q456 388 394 341V-22Q394 -40 381.0 -53.0Q368 -66 350 -66Z" transform="translate(527.03 0.00) scale(0.10000 -0.10000)"/>
<path d="M763 12Q659 1 585.0 4.5Q511 8 460.0 26.0Q409 44 372 77Q290 152 290 306V414Q238 407 189.5 400.5Q141 394 99 386Q81 382 65.5 393.0Q50 404 47 423Q44 441 54.5 456.5Q65 472 84 475Q127 482 179.5 488.5Q232 495 290 502V680Q290 699 303.0 712.5Q316 726 335 726Q354 726 367.0 712.5Q380 699 380 680V511Q439 516 499.0 521.5Q559 527 619 531Q624 578 627.0 621.5Q630 665 631 700Q632 719 645.5 731.5Q659 744 677 744Q696 743 709.0 729.5Q722 716 721 697Q720 663 718.0 621.5Q716 580 711 536Q759 538 804.5 540.0Q850 542 891 542Q910 543 923.5 529.5Q937 516 937 497Q937 478 923.5 465.0Q910 452 892 452Q803 454 702 449Q695 397 686.5 348.0Q678 299 667 259Q663 241 647.0 231.5Q631 222 612 226Q594 230 584.5 246.0Q575 262 579 280Q588 316 595.5 358.0Q603 400 609 444Q552 440 494.0 435.0Q436 430 380 424V306Q380 191 433 145Q461 120 501.0 108.0Q541 96 602.0 95.5Q663 95 753 104Q773 106 788.0 94.5Q803 83 804 63Q806 44 794.0 29.0Q782 14 763 12Z" transform="translate(633.03 0.00) scale(0.10000 -0.10000)"/>
<path d="M506 -24Q417 -24 369.0 12.0Q321 48 321 112Q321 175 367.0 210.5Q413 246 483 238Q535 232 564.0 207.0Q593 182 601.0 146.5Q609 111 598 73Q639 87 671.0 122.5Q703 158 703 225Q703 272 677.5 305.0Q652 338 607.0 353.0Q562 368 505.0 362.0Q448 356 384.0 326.5Q320 297 257 240Q244 228 225.0 230.5Q206 233 194 246Q183 260 183.5 279.0Q184 298 199 308Q263 357 325.5 409.5Q388 462 444.0 513.5Q500 565 545 609Q582 645 570.0 665.5Q558 686 513 681Q491 679 461.0 675.0Q431 671 399.5 667.5Q368 664 343 660Q325 657 310.0 668.5Q295 680 292 698Q290 717 301.0 731.5Q312 746 331 749Q349 752 381.0 754.5Q413 757 447.5 760.0Q482 763 507 765Q571 770 610.5 750.5Q650 731 663.5 697.0Q677 663 663.0 623.0Q649 583 605 545Q579 523 540.5 489.5Q502 456 464 425Q524 445 582.5 440.5Q641 436 688.5 410.0Q736 384 764.5 337.5Q793 291 793 225Q793 137 755.5 82.0Q718 27 653.5 1.5Q589 -24 506 -24ZM508 61Q523 103 512.5 128.0Q502 153 473 155Q445 158 427.5 147.5Q410 137 410 109Q410 86 432.0 73.5Q454 61 508 61Z" transform="translate(739.03 0.00) scale(0.10000 -0.10000)"/>
<path d="M441 -53Q361 -53 309.0 -43.0Q257 -33 227.0 -6.0Q197 21 184.5 69.5Q172 118 172 195V452Q172 543 189.5 595.0Q207 647 251.5 670.0Q296 693 376 698Q383 715 392.0 737.0Q401 759 409.5 780.0Q418 801 423 815Q431 835 449.0 844.0Q467 853 491 845Q511 839 519.5 820.5Q528 802 520 783Q513 767 502.5 743.5Q492 720 482 700H562Q642 700 694.0 690.0Q746 680 776.0 653.0Q806 626 818.5 577.5Q831 529 831 452V195Q831 118 818.5 69.5Q806 21 776.0 -6.0Q746 -33 694.0 -43.0Q642 -53 562 -53ZM265 257H737V395H265ZM441 33H562Q633 33 670.5 42.0Q708 51 722.0 81.0Q736 111 737 172H265Q267 111 281.0 81.0Q295 51 332.5 42.0Q370 33 441 33ZM265 479H737Q736 539 721.5 568.0Q707 597 670.0 606.0Q633 615 562 615H441Q371 615 333.5 606.0Q296 597 281.5 568.0Q267 539 265 479Z" transform="translate(845.03 0.00) scale(0.10000 -0.10000)"/>
<path d="M712 -69Q693 -69 680.0 -57.5Q667 -46 665 -27Q664 -7 675.5 6.5Q687 20 707 21Q750 23 772.5 30.0Q795 37 805.5 58.0Q816 79 822 121Q830 173 834.5 256.0Q839 339 840 439Q840 473 833.5 489.5Q827 506 809.0 511.5Q791 517 756 517H753Q749 306 698.5 166.5Q648 27 544 -62Q530 -74 510.5 -75.5Q491 -77 477 -62Q466 -50 467.0 -33.0Q468 -16 481 -5Q491 3 500.5 11.5Q510 20 519 29Q515 27 512 27Q473 20 420.0 12.5Q367 5 308.5 -2.0Q250 -9 191.0 -15.0Q132 -21 81 -25Q63 -26 50.5 -16.0Q38 -6 36 12Q35 29 45.0 41.0Q55 53 72 54Q113 56 162.0 60.5Q211 65 263 69V142H85Q70 142 61.5 152.5Q53 163 53 176Q53 189 61.5 199.5Q70 210 85 210H263V260H243Q178 260 142.5 272.0Q107 284 93.5 315.5Q80 347 80 407Q80 468 93.5 499.5Q107 531 142.5 543.0Q178 555 243 555H263V600H63Q48 600 39.0 610.5Q30 621 30 634Q30 648 39.0 658.5Q48 669 63 669H263V721Q222 717 182.0 715.0Q142 713 107 712Q67 711 64 747Q63 761 73.0 772.0Q83 783 101 783Q161 785 228.5 790.0Q296 795 361.0 803.0Q426 811 476 822Q495 826 508.5 819.5Q522 813 526 797Q530 780 522.5 767.5Q515 755 498 752Q433 738 347 729V669H540Q555 669 564.0 658.5Q573 648 573 634Q573 621 564.0 610.5Q555 600 540 600H347V555H366Q432 555 467.0 543.0Q502 531 515.0 499.5Q528 468 528 407Q528 347 515.0 315.5Q502 284 467.0 272.0Q432 260 366 260H347V210H512Q527 210 535.5 199.5Q544 189 544 176Q544 163 535.5 152.5Q527 142 512 142H347V77Q392 82 433.0 87.0Q474 92 504 96Q519 98 529.5 89.5Q540 81 541 66Q542 62 541.5 58.5Q541 55 540 52Q605 128 635.0 242.5Q665 357 668 517H578Q559 517 547.0 530.0Q535 543 535 561Q535 578 547.0 591.0Q559 604 578 604H669V795Q669 815 681.0 826.5Q693 838 711 838Q729 838 741.0 826.5Q753 815 753 795V604H766Q824 604 859.0 591.0Q894 578 910.0 544.5Q926 511 925 447Q924 344 919.5 255.5Q915 167 908 106Q900 34 878.0 -3.5Q856 -41 816.0 -55.0Q776 -69 712 -69ZM247 326H263V378H162Q164 343 181.0 334.5Q198 326 247 326ZM347 326H362Q412 326 428.5 334.5Q445 343 448 378H347ZM162 439H263V490H247Q198 490 181.0 482.0Q164 474 162 439ZM347 439H448Q445 474 428.5 482.0Q412 490 362 490H347Z" transform="translate(951.03 0.00) scale(0.10000 -0.10000)"/>
<path d="M179 32Q162 24 143.5 30.5Q125 37 117 54Q109 71 115.0 89.5Q121 108 138 116Q284 186 400.5 289.5Q517 393 587 516Q631 594 528 594H246Q227 594 213.5 608.0Q200 622 200 641Q200 660 213.5 673.5Q227 687 246 687H528Q608 687 650.5 659.0Q693 631 697.5 582.0Q702 533 666 470Q652 446 635.5 421.5Q619 397 600 372Q648 334 699.0 286.5Q750 239 795.0 194.0Q840 149 868 118Q882 105 882.0 86.0Q882 67 868 53Q854 40 835.0 40.0Q816 40 802 54Q782 74 752.0 105.5Q722 137 686.0 172.5Q650 208 613.5 243.0Q577 278 544 306Q469 224 375.0 153.0Q281 82 179 32Z" transform="translate(1057.03 0.00) scale(0.10000 -0.10000)"/>
<path d="M333 -14Q317 -24 298.5 -20.5Q280 -17 269 -1Q259 15 262.5 34.0Q266 53 282 63Q393 137 462.0 246.0Q531 355 551 491H345Q314 435 276.0 382.5Q238 330 197 289Q184 275 165.0 275.5Q146 276 132 289Q118 303 118.5 322.0Q119 341 132 354Q166 389 199.5 434.5Q233 480 262.0 530.5Q291 581 313.0 629.5Q335 678 346 718Q351 736 367.0 746.0Q383 756 402 751Q421 747 431.0 730.0Q441 713 435 695Q427 667 416.0 638.5Q405 610 391 581H832Q851 581 864.0 568.0Q877 555 877 536Q877 517 864.0 504.0Q851 491 832 491H642Q621 332 541.5 202.0Q462 72 333 -14Z" transform="translate(1163.03 0.00) scale(0.10000 -0.10000)"/>
<path d="M246 22Q228 16 211.0 25.0Q194 34 188 52Q182 70 191.0 87.0Q200 104 218 110Q296 135 377.5 178.0Q459 221 535.5 276.5Q612 332 676.0 395.5Q740 459 784 523Q795 539 813.5 542.5Q832 546 848 535Q864 525 867.5 506.0Q871 487 860 471Q815 405 745.0 336.5Q675 268 590.0 206.0Q505 144 416.5 96.0Q328 48 246 22ZM298 342Q283 354 255.0 371.5Q227 389 198.0 405.5Q169 422 151 430Q133 438 127.5 456.5Q122 475 130 492Q139 509 157.0 515.0Q175 521 192 513Q216 502 248.0 484.0Q280 466 310.0 447.0Q340 428 358 414Q373 402 374.5 382.5Q376 363 363 348Q351 334 332.5 332.5Q314 331 298 342ZM406 518Q392 531 364.5 549.5Q337 568 309.0 586.0Q281 604 263 613Q246 622 241.0 641.0Q236 660 246 676Q256 693 274.5 697.5Q293 702 309 693Q332 681 362.5 661.5Q393 642 422.5 621.5Q452 601 469 585Q483 573 484.0 553.5Q485 534 471 520Q458 506 439.0 505.5Q420 505 406 518ZM838 678Q828 668 812.5 668.5Q797 669 787 680Q772 697 754.5 714.0Q737 731 720 745Q710 753 708.0 767.0Q706 781 716 791Q726 803 739.5 802.5Q753 802 765 794Q780 784 801.5 765.0Q823 746 839 731Q850 721 849.5 705.0Q849 689 838 678ZM755 596Q744 586 728.5 587.0Q713 588 704 600Q690 617 673.0 634.5Q656 652 639 667Q629 676 628.0 689.5Q627 703 637 714Q648 725 661.5 724.0Q675 723 686 714Q701 703 722.0 683.5Q743 664 757 648Q768 637 767.0 621.5Q766 606 755 596Z" transform="translate(1269.03 0.00) scale(0.10000 -0.10000)"/>
<path d="M200 93Q183 93 171.0 105.0Q159 117 159 134Q159 151 171.0 163.0Q183 175 200 175H577Q603 246 606.0 282.5Q609 319 590.5 332.0Q572 345 531 345H317Q301 345 288.5 357.0Q276 369 276 386Q276 403 288.5 415.0Q301 427 317 427H531Q647 427 676.5 366.5Q706 306 662 175H807Q824 175 836.0 163.0Q848 151 848 134Q848 117 836.0 105.0Q824 93 807 93Z" transform="translate(1375.03 0.00) scale(0.10000 -0.10000)"/>
<path d="M189 327Q170 327 156.5 340.5Q143 354 143 373Q143 393 156.5 406.0Q170 419 189 419H812Q831 419 844.5 406.0Q858 393 858 373Q858 354 844.5 340.5Q831 327 812 327Z" transform="translate(1481.03 0.00) scale(0.10000 -0.10000)"/>
<path d="M333 -4Q314 -10 297.0 -1.0Q280 8 274 26Q268 44 277.0 61.0Q286 78 304 84Q430 125 525.0 200.0Q620 275 666 369Q690 419 676.0 443.0Q662 467 604 467H245Q245 467 233.5 473.0Q222 479 210.5 489.0Q199 499 199 512Q199 531 212.5 544.0Q226 557 245 557H604Q726 557 761.5 494.0Q797 431 748 329Q694 217 585.5 130.0Q477 43 333 -4ZM309 649Q290 649 276.5 662.0Q263 675 263 694Q263 713 276.5 726.0Q290 739 309 739H681Q700 739 713.5 726.0Q727 713 727 694Q727 675 713.5 662.0Q700 649 681 649Z" transform="translate(1587.03 0.00) scale(0.10000 -0.10000)"/>
</g>
</svg>
